<svg width="54" height="49" viewBox="0 0 54 49" fill="none" xmlns="http://www.w3.org/2000/svg">
<ellipse cx="26.0341" cy="26.1232" rx="19.5263" ry="19.4838" fill="#DDF9FF"/>
<path d="M0.304359 24.5001C0.304359 11.1594 11.1812 0.304359 24.553 0.304359C37.9239 0.304359 48.8021 11.1594 48.8021 24.5001C48.8021 37.8407 37.9247 48.6956 24.553 48.6956C11.1812 48.6956 0.304359 37.8407 0.304359 24.5001ZM24.5528 46.3814C36.6444 46.3814 46.4821 36.5661 46.4821 24.4994C46.4821 12.4325 36.6444 2.61703 24.553 2.61703C12.4615 2.61703 2.62368 12.4328 2.62368 24.4994C2.62368 36.566 12.4612 46.3814 24.5528 46.3814Z" fill="#124E78" stroke="#DDF9FF" stroke-width="0.608718"/>
<path d="M12.2581 8.19221C12.0668 8.17471 11.874 8.19526 11.6907 8.25266C11.5074 8.31005 11.3374 8.40316 11.1905 8.52659C9.66224 9.80124 8.32329 11.2861 7.21378 12.9367C7.10482 13.096 7.02855 13.2753 6.98937 13.4642C6.95019 13.653 6.94889 13.8478 6.98552 14.0372C7.02216 14.2266 7.09602 14.4068 7.20284 14.5676C7.30966 14.7283 7.44732 14.8664 7.60788 14.9738C7.76844 15.0812 7.94873 15.1558 8.13834 15.1933C8.32795 15.2308 8.52312 15.2305 8.71261 15.1924C8.9021 15.1543 9.08214 15.0791 9.24235 14.9712C9.40256 14.8632 9.53978 14.7247 9.64607 14.5636C10.6006 13.1432 11.7527 11.8654 13.0678 10.7687C13.2902 10.5834 13.4525 10.3363 13.5341 10.0589C13.6157 9.78146 13.613 9.48609 13.5263 9.2102C13.4396 8.9343 13.2728 8.69028 13.047 8.50904C12.8212 8.3278 12.5466 8.21748 12.2579 8.19207L12.2581 8.19221Z" fill="#124E78"/>
<path d="M26.5447 22.0418V18.0001C27.2187 18.2441 27.8663 18.5553 28.4777 18.9291C28.825 19.1463 29.2256 19.2639 29.6354 19.2689C29.9215 19.2738 30.2057 19.2216 30.4714 19.1154C30.737 19.0093 30.9787 18.8513 31.1823 18.6507C31.386 18.45 31.5474 18.2109 31.6572 17.9472C31.7669 17.6835 31.8228 17.4006 31.8216 17.1151C31.8216 16.327 31.4167 15.6631 30.6812 15.2441C29.4568 14.4665 28.0877 13.9435 26.6559 13.7065V13.6319C26.6517 13.1483 26.4562 12.686 26.112 12.3455C25.7678 12.005 25.3028 11.814 24.8181 11.814C24.3334 11.814 23.8684 12.005 23.5242 12.3455C23.18 12.686 22.9845 13.1483 22.9803 13.6319V13.6605C19.4491 14.149 17.1167 16.4571 17.1167 19.5393C17.1167 22.7406 18.856 24.5635 23.0921 25.7547V29.9901C22.0443 29.6992 21.0503 29.1941 19.9554 28.4051C19.6347 28.1652 19.2535 28.0191 18.8543 27.9832C18.4551 27.9473 18.0538 28.023 17.6953 28.2018C17.3368 28.3806 17.0352 28.6555 16.8245 28.9957C16.6137 29.3359 16.5021 29.7279 16.502 30.1279C16.4998 30.4986 16.5932 30.8637 16.7732 31.1881C16.9532 31.5124 17.2138 31.7851 17.5299 31.98C19.1485 33.131 21.0154 33.8864 22.9803 34.1852V35.3661C22.9847 35.8521 23.1821 36.3166 23.5291 36.6576C23.8762 36.9987 24.3446 37.1886 24.8317 37.1856C25.0719 37.1882 25.3102 37.1429 25.5326 37.0523C25.755 36.9618 25.9571 36.8279 26.1269 36.6584C26.2968 36.4889 26.431 36.2873 26.5217 36.0654C26.6124 35.8435 26.6578 35.6057 26.6552 35.3661V34.2443C30.2882 33.7078 32.6034 31.4046 32.6034 28.2604C32.6034 25.1162 30.73 23.1855 26.5447 22.0418ZM28.0635 28.4562C28.0635 29.4596 27.34 29.9271 26.5447 30.1379V26.6878C27.9376 27.2555 28.0635 27.8103 28.0635 28.4562ZM21.6573 19.3441C21.6573 18.3572 22.3917 17.9266 23.0931 17.7407V21.0464C21.7742 20.4915 21.6575 19.9779 21.6575 19.3447L21.6573 19.3441Z" fill="#124E78"/>
</svg>
