<svg width="47" height="47" viewBox="0 0 47 47" fill="none" xmlns="http://www.w3.org/2000/svg">
<g clip-path="url(#clip0_408_1341)">
<path d="M24.4236 4.44824C12.8415 4.44824 3.52539 13.7643 3.52539 25.2625C3.52539 36.7607 12.8415 46.0768 24.3397 46.0768C35.8379 46.0768 45.154 36.7607 45.154 25.2625C45.154 13.7643 35.9218 4.44824 24.4236 4.44824ZM31.054 16.8697C33.4879 16.8697 35.4182 18.8 35.4182 21.234H33.7397C33.7397 19.7232 32.5647 18.5482 31.054 18.5482C29.5432 18.5482 28.3682 19.7232 28.3682 21.234H26.6897C26.6897 18.884 28.62 16.8697 31.054 16.8697ZM16.87 16.8697C19.304 16.8697 21.2343 18.8 21.2343 21.234H19.5557C19.5557 19.7232 18.3807 18.5482 16.87 18.5482C15.3593 18.5482 14.1843 19.7232 14.1843 21.234H12.5057C12.4218 18.884 14.4361 16.8697 16.87 16.8697ZM23.92 38.9429C17.6254 38.9429 12.4218 33.8232 12.4218 27.4447H14.1004C14.1004 32.8161 18.4647 37.2643 23.92 37.2643C29.3754 37.2643 33.7397 32.9 33.7397 27.4447H35.4182C35.4182 33.8232 30.2986 38.9429 23.92 38.9429Z" fill="white"/>
<ellipse cx="25.5263" cy="26.1232" rx="19.5263" ry="19.4838" fill="#DDF9FF"/>
<path d="M23.5006 46.1608C36.0157 46.1608 46.1613 36.0152 46.1613 23.5001C46.1613 10.9849 36.0157 0.839355 23.5006 0.839355C10.9854 0.839355 0.839844 10.9849 0.839844 23.5001C0.839844 36.0152 10.9854 46.1608 23.5006 46.1608Z" stroke="#124E78" stroke-width="2"/>
<path d="M19.4719 20.3946C19.4719 18.4643 17.8772 16.8696 15.9469 16.8696C14.0165 16.8696 12.4219 18.4643 12.4219 20.3946" stroke="#124E78" stroke-width="2"/>
<path d="M33.7395 20.3946C33.7395 18.4643 32.1448 16.8696 30.2145 16.8696C28.2841 16.8696 26.6895 18.4643 26.6895 20.3946" stroke="#124E78" stroke-width="2"/>
<path d="M12.4219 26.6055C12.4219 32.4805 17.2058 37.2644 23.0808 37.2644C28.9558 37.2644 33.7397 32.4805 33.7397 26.6055" stroke="#124E78" stroke-width="2"/>
</g>
<defs>
<clipPath id="clip0_408_1341">
<rect width="47" height="47" fill="white"/>
</clipPath>
</defs>
</svg>
